<svg width="88" height="29" viewBox="0 0 88 29" fill="none" xmlns="http://www.w3.org/2000/svg">
<path d="M3.91363 21H0.553625V20.952C1.56163 19.896 1.92163 19.152 2.66563 17.112L7.77763 3.216H8.52163L13.7056 17.304C14.5216 19.488 14.9056 20.112 15.7456 20.952V21H11.6416V20.952C12.0736 20.352 12.3136 19.128 11.5936 17.208L10.6096 14.496H4.44163L3.67363 16.608C2.78563 19.008 3.33763 20.28 3.91363 20.952V21ZM4.70563 13.8H10.3696L7.53763 6.024L4.70563 13.8ZM24.5054 9.288L24.7934 11.904L24.5534 11.976C23.5214 10.056 22.2974 9.504 21.0734 9.504C19.6814 9.504 18.7694 10.248 18.7694 11.376C18.7694 12.84 20.2814 13.32 21.9374 13.992C23.6894 14.688 25.4654 15.528 25.4654 17.856C25.4654 20.136 23.6894 21.36 20.9294 21.36C19.4894 21.36 18.3134 21.024 17.4734 20.664L17.1854 17.664L17.4494 17.592C18.4574 19.752 19.6334 20.664 21.3134 20.664C23.0894 20.664 23.9054 19.68 23.9054 18.504C23.9054 17.016 22.6334 16.44 21.0974 15.816C19.4174 15.144 17.4254 14.376 17.4254 12.048C17.4254 9.648 19.5374 8.832 21.6494 8.832C22.7534 8.832 23.8334 9.048 24.5054 9.288ZM33.9607 19.896C33.4327 20.64 32.4007 21.36 31.0087 21.36C29.7127 21.36 28.4167 20.736 28.4167 18.528V9.888H27.0727V9.6L30.0727 6.912H30.2887V9.192H33.7447V9.888H30.2887V18.504C30.2887 19.632 30.8167 20.232 31.9687 20.232C32.8567 20.232 33.5287 19.896 33.7927 19.68L33.9607 19.896ZM41.3306 21.36C37.8986 21.36 35.0666 18.528 35.0906 15.096C35.0906 11.688 37.9466 8.832 41.3306 8.832C44.7386 8.832 47.5946 11.688 47.5946 15.096C47.5946 18.528 44.7626 21.36 41.3306 21.36ZM41.3306 20.664C44.1146 20.664 45.5306 18.12 45.5306 15.096C45.5306 12.096 44.0906 9.528 41.3306 9.528C38.5706 9.528 37.1546 12.096 37.1546 15.096C37.1546 18.12 38.5466 20.664 41.3306 20.664ZM49.8451 21V20.952C50.3491 19.824 50.4451 18.816 50.4451 17.016V12.528C50.4451 11.28 49.9171 10.536 49.3411 10.056V10.008L52.1731 8.712V11.688L52.2931 11.712C53.3971 10.536 54.5731 8.808 56.2771 8.832L56.2531 11.328H56.1091C55.7011 11.136 54.7891 10.944 54.2131 10.944C53.7811 10.944 52.9651 11.64 52.2691 12.504V16.992C52.2691 18.768 52.3171 19.824 52.8691 20.952V21H49.8451ZM59.7455 6.192C59.0495 6.192 58.4975 5.64 58.4975 4.944C58.4975 4.248 59.0495 3.672 59.7455 3.672C60.4415 3.672 61.0175 4.248 61.0175 4.944C61.0175 5.64 60.4415 6.192 59.7455 6.192ZM58.3295 21V20.952C58.7615 19.824 58.9295 18.792 58.9295 17.016V12.576C58.9295 11.352 58.4015 10.608 57.8255 10.128V10.008L60.7535 8.712V16.992C60.7535 18.768 60.8015 19.824 61.3535 20.952V21H58.3295ZM66.4254 21.36C64.7214 21.36 63.5454 20.424 63.5454 18.888C63.5454 16.056 67.3854 14.76 70.1934 14.4V12.48C70.1934 10.992 69.6654 10.032 67.6734 10.032C66.4014 10.032 65.1534 10.44 64.2174 11.136L64.0014 10.896C65.0334 9.696 66.6414 8.832 68.6094 8.832C71.3214 8.832 72.0174 10.344 72.0174 12.048V18.96C72.0174 19.632 72.3054 20.088 73.0254 20.088C73.5294 20.088 73.9134 19.848 74.2734 19.44L74.4654 19.608C74.1534 20.328 73.4814 21.288 72.1374 21.288C70.8894 21.288 70.2894 20.472 70.2414 19.536C69.4254 20.496 68.0574 21.36 66.4254 21.36ZM65.3214 18.384C65.3214 19.44 66.0174 20.16 67.3374 20.16C68.5614 20.16 69.6174 19.56 70.1934 18.912V15C67.7934 15.408 65.3214 16.416 65.3214 18.384ZM75.6733 21V20.952C76.1773 19.824 76.2733 18.816 76.2733 17.016V12.528C76.2733 11.28 75.7453 10.536 75.1693 10.056V10.008L78.0013 8.712V11.016L78.0973 11.04C79.2733 9.624 80.7133 8.832 82.3453 8.832C84.6493 8.832 85.8733 10.224 85.8733 12.432V16.992C85.8733 18.84 85.8973 19.824 86.4493 20.952V21H83.4493V20.952C83.9533 19.824 84.0493 18.72 84.0493 17.016V12.84C84.0493 11.352 83.3773 10.152 81.4813 10.152C80.3053 10.152 79.0573 10.632 78.0973 11.76V16.992C78.0973 18.768 78.1453 19.824 78.6973 20.952V21H75.6733Z" fill="black"/>
</svg>
